<svg width="96" height="96" viewBox="0 0 482 480" fill="none" xmlns="http://www.w3.org/2000/svg">
<path d="M73.1707 333C62.6016 333 52.7236 331.459 43.5366 328.377C34.4309 325.294 26.7073 321.634 20.3659 317.396L11.9512 327.51H1.58537L0 253.391H10.4878C12.8455 260.422 15.8537 267.839 19.5122 275.641C23.1707 283.443 27.3984 290.426 32.1951 296.591C37.1545 303.044 42.6829 308.294 48.7805 312.339C54.9593 316.385 62.1545 318.407 70.3659 318.407C81.4228 318.407 89.878 315.229 95.7317 308.872C101.667 302.418 104.634 294.327 104.634 284.599C104.634 276.604 102.114 269.91 97.0732 264.516C92.1138 259.025 84.3902 254.306 73.9024 250.357C67.0732 247.756 60.7724 245.348 55 243.132C49.3089 240.917 43.9431 238.654 38.9024 236.342C27.2764 230.852 18.6179 223.001 12.9268 212.791C7.31707 202.581 4.5122 191.167 4.5122 178.549C4.5122 170.555 5.97561 162.897 8.90244 155.577C11.8293 148.16 16.0976 141.514 21.7073 135.638C27.0732 130.148 33.9431 125.669 42.3171 122.201C50.6911 118.734 59.7967 117 69.6341 117C79.2276 117 88.2114 118.589 96.5854 121.768C104.959 124.85 111.545 127.981 116.341 131.159L123.78 122.49H134.39L135.366 192.419H124.878C122.439 184.906 119.553 177.249 116.22 169.447C112.967 161.548 109.512 154.999 105.854 149.797C101.87 144.211 97.2764 139.78 92.0732 136.505C86.8699 133.134 80.7724 131.448 73.7805 131.448C65 131.448 57.8049 134.386 52.1951 140.262C46.6667 146.137 43.9024 153.409 43.9024 162.078C43.9024 170.266 46.3008 176.96 51.0976 182.161C55.9756 187.363 63.5366 191.938 73.7805 195.887C79.7967 198.295 85.935 200.703 92.1951 203.111C98.4553 205.519 104.024 207.831 108.902 210.046C120.691 215.44 129.634 222.905 135.732 232.441C141.911 241.88 145 253.631 145 267.694C145 276.556 143.252 285.128 139.756 293.412C136.26 301.696 131.545 308.583 125.61 314.073C119.106 320.141 111.585 324.813 103.049 328.088C94.5122 331.363 84.5528 333 73.1707 333Z" fill="#0771AC"/>
<path d="M306 150.66H296.592C294.067 141.297 289.994 131.265 284.374 120.564C278.835 109.864 273.703 104.102 268.979 103.279C266.372 102.868 263.155 102.507 259.327 102.199C255.498 101.89 252.199 101.736 249.43 101.736H243.687V273.51C243.687 277.214 244.217 280.506 245.276 283.387C246.335 286.165 248.412 288.377 251.507 290.023C253.38 290.949 256.272 291.927 260.182 292.956C264.173 293.882 267.553 294.55 270.323 294.962V307H173.677V294.962C176.039 294.653 179.338 294.242 183.574 293.727C187.891 293.11 190.823 292.39 192.371 291.567C195.548 289.92 197.665 287.708 198.724 284.93C199.783 282.152 200.313 278.86 200.313 275.053V101.736H194.57C191.801 101.736 188.502 101.89 184.673 102.199C180.845 102.507 177.628 102.868 175.021 103.279C170.297 104.102 165.124 109.864 159.504 120.564C153.965 131.265 149.933 141.297 147.408 150.66H138V88H306V150.66Z" fill="#07ACA2"/>
<path d="M479 248.176C476.485 248.475 474.255 248.822 472.308 249.22C470.361 249.617 467.928 250.412 465.008 251.605C461.682 252.897 459.492 255.033 458.437 258.015C457.383 260.996 456.856 264.126 456.856 267.406V292.001C456.856 296.97 456.896 300.995 456.977 304.076C457.058 307.057 457.18 310.783 457.342 315.255C449.231 321.218 437.226 326.833 421.327 332.1C405.51 337.367 390.949 340 377.646 340C365.155 340 353.433 337.665 342.483 332.994C331.532 328.323 321.92 321.317 313.646 311.976C305.373 302.734 298.843 291.256 294.057 277.542C289.352 263.828 287 248.127 287 230.438C287 213.941 289.231 198.687 293.692 184.675C298.153 170.663 304.602 158.589 313.038 148.453C321.312 138.416 331.37 130.664 343.213 125.199C355.137 119.733 368.318 117 382.757 117C392.572 117 401.657 118.491 410.011 121.472C418.366 124.354 425.261 127.484 430.696 130.863L438.24 122.664H448.825L449.92 199.88H439.213C433.048 176.725 425.667 159.533 417.068 148.303C408.47 137.074 397.601 131.459 384.46 131.459C368.886 131.459 356.84 139.807 348.323 156.502C339.887 173.197 335.669 196.203 335.669 225.519C335.669 256.623 339.806 280.971 348.08 298.56C356.435 316.15 368.237 324.945 383.487 324.945C390.625 324.945 396.952 323.653 402.468 321.069C408.065 318.386 412.404 315.305 415.487 311.827V268.896C415.487 265.319 414.959 262.338 413.905 259.953C412.85 257.468 410.741 255.332 407.578 253.543C405.144 252.152 402.103 251.009 398.452 250.114C394.802 249.22 391.76 248.574 389.327 248.176V236.549H479V248.176Z" fill="#0771AC"/>
</svg>
